<?xml version="1.0" encoding="UTF-8" standalone="no"?>
<svg
   width="40"
   height="40"
   viewBox="0 0 40 40"
   fill="none"
   version="1.1"
   id="svg4"
   sodipodi:docname="linkedin.svg"
   inkscape:version="1.1.2 (0a00cf5339, 2022-02-04)"
   xmlns:inkscape="http://www.inkscape.org/namespaces/inkscape"
   xmlns:sodipodi="http://sodipodi.sourceforge.net/DTD/sodipodi-0.dtd"
   xmlns="http://www.w3.org/2000/svg"
   xmlns:svg="http://www.w3.org/2000/svg">
  <defs
     id="defs8" />
  <sodipodi:namedview
     id="namedview6"
     pagecolor="#ffffff"
     bordercolor="#666666"
     borderopacity="1.0"
     inkscape:pageshadow="2"
     inkscape:pageopacity="0.0"
     inkscape:pagecheckerboard="0"
     showgrid="false"
     inkscape:zoom="6.0122571"
     inkscape:cx="21.289841"
     inkscape:cy="26.529138"
     inkscape:window-width="1366"
     inkscape:window-height="706"
     inkscape:window-x="0"
     inkscape:window-y="33"
     inkscape:window-maximized="1"
     inkscape:current-layer="svg4" />
  <path
     fill-rule="evenodd"
     clip-rule="evenodd"
     d="M 1.0093833,13.510883 H 8.805667 V 38.21405 H 1.0093833 Z M 4.708667,10.421217 H 4.6525 C 1.8296833,10.421217 0,8.532883 0,6.13905 0,3.698383 1.88375,1.85 4.7625,1.85 c 2.876333,0 4.645,1.843717 4.701333,4.282217 0,2.393666 -1.825,4.289 -4.755333,4.289 z M 40,38.213717 H 31.156167 V 25.430383 c 0,-3.346 -1.382667,-5.630333 -4.423667,-5.630333 -2.326,0 -3.619333,1.5415 -4.221833,3.026833 -0.225667,0.533167 -0.1875,1.276 -0.1875,2.018667 v 13.367833 h -8.7575 v -24.703 h 8.758 v 3.876834 c 0.5175,-1.695 3.315666,-4.114334 7.782333,-4.114334 5.5405,0 9.893667,3.553 9.893667,11.204667 v 13.735833 z"
     fill="#007ebb"
     id="path2"
     style="stroke-width:1.66667" />
</svg>
