<?xml version="1.0" encoding="UTF-8" standalone="no"?>
<!-- Generator: Adobe Illustrator 18.0.0, SVG Export Plug-In . SVG Version: 6.00 Build 0)  -->

<svg
   version="1.1"
   id="Capa_1"
   x="0px"
   y="0px"
   viewBox="0 0 39.999999 39.999999"
   xml:space="preserve"
   sodipodi:docname="website.svg"
   width="40"
   height="40"
   inkscape:version="1.1.2 (0a00cf5339, 2022-02-04)"
   xmlns:inkscape="http://www.inkscape.org/namespaces/inkscape"
   xmlns:sodipodi="http://sodipodi.sourceforge.net/DTD/sodipodi-0.dtd"
   xmlns="http://www.w3.org/2000/svg"
   xmlns:svg="http://www.w3.org/2000/svg"><defs
   id="defs41" /><sodipodi:namedview
   id="namedview39"
   pagecolor="#ffffff"
   bordercolor="#666666"
   borderopacity="1.0"
   inkscape:pageshadow="2"
   inkscape:pageopacity="0.0"
   inkscape:pagecheckerboard="0"
   showgrid="false"
   width="40px"
   inkscape:zoom="4.111041"
   inkscape:cx="20.676028"
   inkscape:cy="8.6352824"
   inkscape:window-width="1366"
   inkscape:window-height="706"
   inkscape:window-x="0"
   inkscape:window-y="33"
   inkscape:window-maximized="1"
   inkscape:current-layer="Capa_1" />
<g
   id="g6"
   transform="matrix(0.18444144,0,0,0.18443875,4.9998386,4.9999309)">
	<path
   d="M 151.764,10.894 C 137.242,-3.628 113.612,-3.631 99.088,10.886 l 0.003,0.003 -22.979,22.983 10.607,10.605 22.983,-22.988 -0.002,-0.002 c 8.678,-8.663 22.785,-8.658 31.457,0.014 8.673,8.672 8.672,22.786 0,31.461 l -34.486,34.484 c -4.201,4.202 -9.787,6.516 -15.729,6.516 -5.942,0 -11.529,-2.314 -15.73,-6.516 L 64.605,98.052 c 7.035,7.035 16.389,10.91 26.338,10.91 9.949,0 19.303,-3.875 26.335,-10.91 l 34.487,-34.484 c 14.519,-14.525 14.519,-38.155 -10e-4,-52.674 z"
   id="path2" />
	<path
   d="m 52.96,141.162 v 0 c -8.675,8.67 -22.788,8.668 -31.461,-0.005 -8.673,-8.675 -8.673,-22.791 -10e-4,-31.465 L 55.98,75.21 c 8.675,-8.674 22.789,-8.674 31.462,0 L 98.05,64.604 C 83.526,50.081 59.896,50.08 45.374,64.604 L 10.89,99.086 c -14.519,14.523 -14.519,38.154 10e-4,52.678 7.263,7.262 16.801,10.893 26.341,10.892 9.536,0 19.074,-3.629 26.333,-10.887 l 0.002,-0.001 22.984,-22.99 -10.608,-10.606 z"
   id="path4" />
</g>
<g
   id="g8"
   transform="matrix(0.18444144,0,0,0.18443875,4.9998386,4.9999309)">
</g>
<g
   id="g10"
   transform="matrix(0.18444144,0,0,0.18443875,4.9998386,4.9999309)">
</g>
<g
   id="g12"
   transform="matrix(0.18444144,0,0,0.18443875,4.9998386,4.9999309)">
</g>
<g
   id="g14"
   transform="matrix(0.18444144,0,0,0.18443875,4.9998386,4.9999309)">
</g>
<g
   id="g16"
   transform="matrix(0.18444144,0,0,0.18443875,4.9998386,4.9999309)">
</g>
<g
   id="g18"
   transform="matrix(0.18444144,0,0,0.18443875,4.9998386,4.9999309)">
</g>
<g
   id="g20"
   transform="matrix(0.18444144,0,0,0.18443875,4.9998386,4.9999309)">
</g>
<g
   id="g22"
   transform="matrix(0.18444144,0,0,0.18443875,4.9998386,4.9999309)">
</g>
<g
   id="g24"
   transform="matrix(0.18444144,0,0,0.18443875,4.9998386,4.9999309)">
</g>
<g
   id="g26"
   transform="matrix(0.18444144,0,0,0.18443875,4.9998386,4.9999309)">
</g>
<g
   id="g28"
   transform="matrix(0.18444144,0,0,0.18443875,4.9998386,4.9999309)">
</g>
<g
   id="g30"
   transform="matrix(0.18444144,0,0,0.18443875,4.9998386,4.9999309)">
</g>
<g
   id="g32"
   transform="matrix(0.18444144,0,0,0.18443875,4.9998386,4.9999309)">
</g>
<g
   id="g34"
   transform="matrix(0.18444144,0,0,0.18443875,4.9998386,4.9999309)">
</g>
<g
   id="g36"
   transform="matrix(0.18444144,0,0,0.18443875,4.9998386,4.9999309)">
</g>
</svg>
